<svg viewBox="895 341.0454 380 184.9091" width="5000" height="2433.0144736842103" xmlns="http://www.w3.org/2000/svg" xmlns:xlink="http://www.w3.org/1999/xlink" preserveAspectRatio="none"><defs></defs><style>.aLgOaV3zRcolors-0 {fill:#7A63FF;fill-opacity:1;}.aLgOaV3zRcolors-1 {fill:#74E0EF;fill-opacity:1;}.aLgOaV3zRcolors-2 {fill:#FFFFFF;fill-opacity:1;}.aLgOaV3zRcolors-3 {fill:#969696;fill-opacity:1;}.aLgOaV3zRcolors-4 {fill:#C1F7FF;fill-opacity:1;}.aLgOaV3zRcolors-5 {fill:#EF75FD;fill-opacity:1;}.aLgOaV3zRcolors-6 {fill:#555555;fill-opacity:1;}.aLgOaV3zRcolors-7 {fill:#B4B4B4;fill-opacity:1;}.companyName {fill:#E7E7E7;fill-opacity:1;}.icon3-str {stroke:#FFFFFF;stroke-opacity:1;}.text {fill:#E7E7E7;fill-opacity:1;}</style><g opacity="1" transform="rotate(0 945.8367 341.0454)">
<svg width="278.3266" height="184.9091" x="945.8367" y="341.0454" version="1.1" preserveAspectRatio="none" viewBox="4.200999736785889 21.96699905395508 89.02999114990234 59.14799880981445">
  <g transform="matrix(1 0 0 1 0 0)" class="aLgOaV3zRcolors-0"><g><circle cx="46.796" cy="22.734" r="0.767"></circle><circle cx="46.796" cy="26.58" r="0.886"></circle><circle cx="46.796" cy="30.425" r="1.004"></circle><circle cx="46.797" cy="34.271" r="1.12"></circle><circle cx="46.796" cy="38.079" r="1.24"></circle><circle cx="46.797" cy="41.963" r="1.356"></circle><circle cx="46.797" cy="45.809" r="1.476"></circle><circle cx="43.004" cy="22.734" r="0.767"></circle><circle cx="43.004" cy="26.58" r="0.886"></circle><circle cx="43.004" cy="30.425" r="1.004"></circle><circle cx="43.004" cy="34.271" r="1.12"></circle><circle cx="43.004" cy="38.079" r="1.24"></circle><circle cx="43.004" cy="41.963" r="1.356"></circle><circle cx="43.004" cy="80.348" r="0.767"></circle><circle cx="43.004" cy="76.57" r="0.886"></circle><circle cx="43.004" cy="72.723" r="1.003"></circle><circle cx="43.004" cy="68.876" r="1.121"></circle><circle cx="43.004" cy="65.031" r="1.239"></circle><circle cx="43.004" cy="61.186" r="1.356"></circle><circle cx="46.796" cy="80.348" r="0.767"></circle><circle cx="46.796" cy="76.57" r="0.886"></circle><circle cx="46.796" cy="72.723" r="1.003"></circle><circle cx="46.797" cy="68.876" r="1.121"></circle><circle cx="46.796" cy="65.031" r="1.239"></circle><circle cx="46.797" cy="61.186" r="1.356"></circle><circle cx="43.004" cy="45.809" r="1.476"></circle><circle cx="46.797" cy="49.447" r="1.476"></circle><circle cx="43.004" cy="49.447" r="1.476"></circle><circle cx="46.797" cy="53.083" r="1.475"></circle><circle cx="43.004" cy="53.083" r="1.475"></circle><circle cx="46.797" cy="57.024" r="1.475"></circle><circle cx="50.594" cy="22.734" r="0.767"></circle><circle cx="50.591" cy="26.58" r="0.886"></circle><circle cx="50.586" cy="30.425" r="1.004"></circle><circle cx="50.582" cy="34.271" r="1.12"></circle><circle cx="50.578" cy="38.079" r="1.24"></circle><circle cx="50.573" cy="41.963" r="1.356"></circle><circle cx="50.57" cy="45.809" r="1.476"></circle><circle cx="50.594" cy="80.348" r="0.767"></circle><circle cx="50.591" cy="76.57" r="0.886"></circle><circle cx="50.586" cy="72.723" r="1.003"></circle><circle cx="50.582" cy="68.876" r="1.121"></circle><circle cx="50.578" cy="65.031" r="1.239"></circle><circle cx="50.573" cy="61.186" r="1.356"></circle><circle cx="50.57" cy="49.447" r="1.476"></circle><circle cx="50.57" cy="53.083" r="1.475"></circle><circle cx="50.57" cy="57.024" r="1.475"></circle><circle cx="54.53" cy="76.57" r="0.886"></circle><circle cx="54.525" cy="72.723" r="1.003"></circle><circle cx="54.522" cy="68.876" r="1.121"></circle><circle cx="54.52" cy="65.031" r="1.239"></circle><circle cx="58.309" cy="49.571" r="1.24"></circle><circle cx="62.145" cy="49.571" r="1.144"></circle><circle cx="65.983" cy="49.571" r="1.049"></circle><circle cx="69.821" cy="49.571" r="0.954"></circle><circle cx="73.659" cy="49.571" r="0.859"></circle><circle cx="77.497" cy="49.571" r="0.763"></circle><circle cx="81.334" cy="49.571" r="0.668"></circle><circle cx="85.172" cy="49.571" r="0.573"></circle><circle cx="89.01" cy="49.571" r="0.479"></circle><circle cx="92.848" cy="49.571" r="0.383"></circle><path d="M35.535,52.165c0.684,0,1.239,0.553,1.239,1.238s-0.556,1.24-1.239,1.24s-1.238-0.555-1.238-1.24   C34.297,52.722,34.852,52.165,35.535,52.165z"></path><circle cx="31.698" cy="53.403" r="1.144"></circle><circle cx="27.713" cy="53.403" r="0.764"></circle><circle cx="23.876" cy="53.403" r="0.668"></circle><circle cx="20.038" cy="53.403" r="0.573"></circle><circle cx="16.2" cy="53.403" r="0.479"></circle><circle cx="12.363" cy="53.403" r="0.383"></circle><circle cx="58.356" cy="57.149" r="1.144"></circle><circle cx="62.194" cy="57.149" r="1.049"></circle><circle cx="66.032" cy="57.149" r="0.953"></circle><circle cx="69.87" cy="57.149" r="0.858"></circle><circle cx="73.707" cy="57.149" r="0.763"></circle><circle cx="77.545" cy="57.149" r="0.669"></circle><circle cx="81.383" cy="57.149" r="0.572"></circle><circle cx="85.221" cy="57.149" r="0.479"></circle><circle cx="89.058" cy="57.149" r="0.383"></circle><circle cx="58.356" cy="60.788" r="1.144"></circle><circle cx="62.194" cy="60.788" r="1.049"></circle><circle cx="66.032" cy="60.788" r="0.953"></circle><path d="M70.729,60.788c0,0.473-0.384,0.857-0.859,0.857c-0.474,0-0.857-0.385-0.857-0.857c0-0.477,0.384-0.859,0.857-0.859   C70.345,59.929,70.729,60.312,70.729,60.788z"></path><circle cx="73.707" cy="60.788" r="0.763"></circle><circle cx="77.545" cy="60.788" r="0.669"></circle><circle cx="81.383" cy="60.788" r="0.572"></circle><circle cx="85.221" cy="60.788" r="0.479"></circle><circle cx="89.058" cy="60.788" r="0.383"></circle><circle cx="58.449" cy="65.032" r="0.668"></circle><circle cx="62.286" cy="65.032" r="0.573"></circle><circle cx="66.124" cy="65.032" r="0.477"></circle><circle cx="69.963" cy="65.031" r="0.384"></circle><circle cx="58.449" cy="68.972" r="0.668"></circle><circle cx="62.286" cy="68.972" r="0.573"></circle><circle cx="66.124" cy="68.972" r="0.477"></circle><circle cx="69.963" cy="68.973" r="0.382"></circle><circle cx="58.449" cy="72.761" r="0.668"></circle><circle cx="62.286" cy="72.761" r="0.573"></circle><circle cx="66.124" cy="72.761" r="0.477"></circle><circle cx="69.963" cy="72.762" r="0.382"></circle><path d="M59.117,76.548c0,0.369-0.3,0.67-0.669,0.67s-0.668-0.301-0.668-0.67c0-0.367,0.299-0.666,0.668-0.666   S59.117,76.181,59.117,76.548z"></path><path d="M62.858,76.548c0,0.318-0.255,0.576-0.572,0.576c-0.316,0-0.573-0.258-0.573-0.576c0-0.314,0.257-0.57,0.573-0.57   C62.604,75.978,62.858,76.233,62.858,76.548z"></path><path d="M66.601,76.548c0,0.264-0.212,0.48-0.478,0.48c-0.263,0-0.477-0.217-0.477-0.48c0-0.262,0.214-0.477,0.477-0.477   C66.389,76.071,66.601,76.286,66.601,76.548z"></path><circle cx="39.236" cy="80.348" r="0.767"></circle><circle cx="35.301" cy="80.349" r="0.573"></circle><circle cx="31.464" cy="80.349" r="0.478"></circle><circle cx="27.627" cy="80.349" r="0.383"></circle><circle cx="58.309" cy="53.209" r="1.239"></circle><circle cx="62.145" cy="53.21" r="1.144"></circle><circle cx="65.983" cy="53.21" r="1.049"></circle><circle cx="69.821" cy="53.21" r="0.954"></circle><circle cx="73.659" cy="53.21" r="0.859"></circle><circle cx="77.497" cy="53.21" r="0.763"></circle><circle cx="81.334" cy="53.21" r="0.668"></circle><circle cx="85.172" cy="53.21" r="0.573"></circle><circle cx="89.01" cy="53.21" r="0.479"></circle><circle cx="54.514" cy="61.186" r="1.356"></circle><circle cx="54.511" cy="49.447" r="1.476"></circle><circle cx="58.309" cy="45.783" r="1.239"></circle><circle cx="62.145" cy="45.782" r="1.144"></circle><circle cx="65.983" cy="45.782" r="1.049"></circle><circle cx="69.821" cy="45.782" r="0.954"></circle><circle cx="73.659" cy="45.782" r="0.859"></circle><circle cx="77.497" cy="45.782" r="0.763"></circle><path d="M82.002,45.782c0,0.369-0.299,0.67-0.667,0.67c-0.369,0-0.669-0.301-0.669-0.67c0-0.367,0.3-0.668,0.669-0.668   C81.703,45.114,82.002,45.415,82.002,45.782z"></path><circle cx="85.172" cy="45.782" r="0.573"></circle><circle cx="89.01" cy="45.782" r="0.479"></circle><circle cx="92.848" cy="45.782" r="0.383"></circle><circle cx="35.441" cy="45.632" r="0.954"></circle><circle cx="31.604" cy="45.632" r="0.858"></circle><circle cx="27.766" cy="45.632" r="0.764"></circle><circle cx="23.928" cy="45.632" r="0.668"></circle><circle cx="20.09" cy="45.632" r="0.573"></circle><circle cx="16.252" cy="45.632" r="0.478"></circle><circle cx="12.414" cy="45.631" r="0.382"></circle><circle cx="35.368" cy="30.323" r="0.574"></circle><circle cx="31.529" cy="30.323" r="0.479"></circle><circle cx="27.692" cy="30.323" r="0.383"></circle><circle cx="35.368" cy="34.265" r="0.689"></circle><circle cx="31.529" cy="34.265" r="0.479"></circle><circle cx="27.692" cy="34.265" r="0.383"></circle><circle cx="35.463" cy="26.687" r="0.478"></circle><path d="M54.52,43.233c-0.686,0-1.24-0.555-1.24-1.24c0-0.682,0.555-1.238,1.24-1.238c0.683,0,1.237,0.557,1.237,1.238   C55.757,42.679,55.202,43.233,54.52,43.233z"></path><circle cx="58.356" cy="41.993" r="1.144"></circle><circle cx="62.194" cy="41.993" r="1.049"></circle><circle cx="54.52" cy="38.079" r="1.24"></circle><circle cx="58.356" cy="38.079" r="1.144"></circle><circle cx="62.194" cy="38.079" r="1.049"></circle><circle cx="66.032" cy="41.993" r="0.953"></circle><path d="M70.729,41.993c0,0.473-0.384,0.861-0.859,0.861c-0.474,0-0.857-0.389-0.857-0.861s0.384-0.859,0.857-0.859   C70.345,41.134,70.729,41.521,70.729,41.993z"></path><circle cx="54.464" cy="34.265" r="1.049"></circle><circle cx="58.302" cy="34.265" r="0.954"></circle><circle cx="62.14" cy="34.265" r="0.859"></circle><circle cx="73.707" cy="41.993" r="0.763"></circle><circle cx="77.545" cy="41.993" r="0.669"></circle><circle cx="66.027" cy="38.079" r="0.667"></circle><circle cx="81.383" cy="41.993" r="0.572"></circle><circle cx="69.864" cy="38.079" r="0.573"></circle><circle cx="85.221" cy="41.993" r="0.479"></circle><circle cx="89.058" cy="41.995" r="0.383"></circle><circle cx="73.6" cy="38.079" r="0.383"></circle><circle cx="35.251" cy="38.079" r="1.144"></circle><circle cx="31.413" cy="38.079" r="1.049"></circle><circle cx="27.58" cy="38.079" r="0.668"></circle><circle cx="23.743" cy="38.079" r="0.573"></circle><circle cx="20.008" cy="38.079" r="0.383"></circle><circle cx="35.251" cy="42.019" r="1.144"></circle><circle cx="31.413" cy="42.019" r="1.049"></circle><circle cx="27.58" cy="42.019" r="0.668"></circle><circle cx="23.743" cy="42.019" r="0.573"></circle><circle cx="20.008" cy="42.021" r="0.383"></circle><circle cx="54.616" cy="30.349" r="1.048"></circle><path d="M59.117,30.349c0,0.369-0.3,0.67-0.669,0.67s-0.668-0.301-0.668-0.67c0-0.367,0.299-0.668,0.668-0.668   S59.117,29.981,59.117,30.349z"></path><circle cx="62.286" cy="30.349" r="0.573"></circle><circle cx="66.021" cy="30.35" r="0.384"></circle><circle cx="54.405" cy="26.712" r="0.573"></circle><circle cx="58.141" cy="26.712" r="0.383"></circle><circle cx="54.511" cy="45.658" r="1.476"></circle><circle cx="54.511" cy="53.083" r="1.475"></circle><circle cx="54.511" cy="57.024" r="1.475"></circle><circle cx="43.004" cy="57.024" r="1.475"></circle><circle cx="39.237" cy="26.58" r="0.886"></circle><circle cx="39.237" cy="30.425" r="1.004"></circle><circle cx="35.368" cy="76.399" r="0.574"></circle><circle cx="31.529" cy="76.399" r="0.479"></circle><circle cx="27.692" cy="76.397" r="0.383"></circle><circle cx="39.237" cy="76.5" r="1.003"></circle><circle cx="39.237" cy="34.271" r="1.12"></circle><circle cx="39.237" cy="38.079" r="1.24"></circle><path d="M34.107,72.329c0-0.629,0.512-1.143,1.143-1.143c0.633,0,1.146,0.514,1.146,1.143c0,0.635-0.513,1.146-1.146,1.146   C34.619,73.476,34.107,72.964,34.107,72.329z"></path><path d="M30.364,72.329c0-0.576,0.47-1.047,1.049-1.047c0.58,0,1.049,0.471,1.049,1.047c0,0.584-0.469,1.053-1.049,1.053   C30.834,73.382,30.364,72.913,30.364,72.329z"></path><path d="M26.912,72.329c0-0.365,0.301-0.666,0.669-0.666c0.369,0,0.667,0.301,0.667,0.666c0,0.371-0.298,0.67-0.667,0.67   C27.213,72.999,26.912,72.7,26.912,72.329z"></path><path d="M23.17,72.329c0-0.314,0.257-0.57,0.573-0.57s0.572,0.256,0.572,0.57c0,0.318-0.256,0.574-0.572,0.574   S23.17,72.647,23.17,72.329z"></path><path d="M20.008,71.948c0.212,0,0.384,0.17,0.384,0.381c0,0.215-0.172,0.385-0.384,0.385c-0.21,0-0.383-0.17-0.383-0.385   C19.625,72.118,19.798,71.948,20.008,71.948z"></path><path d="M39.237,71.093c-0.687,0-1.24,0.553-1.24,1.236c0,0.688,0.554,1.24,1.24,1.24c0.684,0,1.238-0.553,1.238-1.24   C40.476,71.646,39.921,71.093,39.237,71.093z"></path><circle cx="39.237" cy="41.963" r="1.356"></circle><circle cx="35.251" cy="49.446" r="1.144"></circle><circle cx="31.413" cy="49.446" r="1.049"></circle><circle cx="27.58" cy="49.446" r="0.668"></circle><circle cx="23.743" cy="49.446" r="0.573"></circle><circle cx="20.008" cy="49.446" r="0.383"></circle><path d="M39.237,48.032c-0.751,0-1.357,0.609-1.357,1.359c0,0.746,0.606,1.355,1.357,1.355c0.748,0,1.356-0.609,1.356-1.355   C40.594,48.642,39.985,48.032,39.237,48.032z"></path><circle cx="39.237" cy="45.809" r="1.476"></circle><circle cx="39.237" cy="53.404" r="1.474"></circle><circle cx="35.535" cy="57.193" r="1.239"></circle><circle cx="31.698" cy="57.192" r="1.144"></circle><circle cx="27.713" cy="57.192" r="0.764"></circle><circle cx="23.876" cy="57.192" r="0.668"></circle><circle cx="20.038" cy="57.192" r="0.573"></circle><circle cx="16.2" cy="57.192" r="0.479"></circle><circle cx="12.363" cy="57.193" r="0.382"></circle><circle cx="8.422" cy="57.191" r="0.317"></circle><circle cx="4.481" cy="57.193" r="0.28"></circle><circle cx="39.237" cy="57.192" r="1.475"></circle><circle cx="35.535" cy="60.981" r="1.238"></circle><circle cx="31.698" cy="60.981" r="1.144"></circle><path d="M26.949,60.981c0-0.422,0.343-0.762,0.766-0.762c0.42,0,0.762,0.34,0.762,0.762c0,0.424-0.342,0.764-0.762,0.764   C27.292,61.745,26.949,61.405,26.949,60.981z"></path><path d="M23.208,60.983c0-0.369,0.299-0.67,0.668-0.67s0.669,0.299,0.669,0.67c-0.001,0.367-0.3,0.666-0.669,0.666   S23.208,61.351,23.208,60.983z"></path><circle cx="20.038" cy="60.983" r="0.573"></circle><circle cx="16.2" cy="60.981" r="0.479"></circle><circle cx="12.363" cy="60.982" r="0.382"></circle><circle cx="8.422" cy="60.982" r="0.317"></circle><circle cx="4.481" cy="60.982" r="0.28"></circle><circle cx="73.796" cy="65.074" r="0.28"></circle><circle cx="73.796" cy="68.862" r="0.279"></circle><circle cx="39.236" cy="64.923" r="1.238"></circle><circle cx="35.487" cy="64.923" r="1.144"></circle><circle cx="31.503" cy="64.923" r="0.764"></circle><circle cx="27.665" cy="64.923" r="0.669"></circle><circle cx="23.828" cy="64.923" r="0.574"></circle><circle cx="19.989" cy="64.923" r="0.478"></circle><circle cx="16.151" cy="64.923" r="0.383"></circle><circle cx="12.212" cy="64.923" r="0.316"></circle><circle cx="8.271" cy="64.923" r="0.279"></circle><circle cx="39.236" cy="68.711" r="1.239"></circle><circle cx="35.487" cy="68.712" r="1.144"></circle><circle cx="31.503" cy="68.712" r="0.764"></circle><circle cx="27.665" cy="68.712" r="0.669"></circle><circle cx="23.828" cy="68.712" r="0.574"></circle><circle cx="19.989" cy="68.712" r="0.478"></circle><circle cx="16.151" cy="68.712" r="0.383"></circle><circle cx="12.212" cy="68.713" r="0.317"></circle><circle cx="39.237" cy="60.982" r="1.476"></circle></g></g>
</svg>
</g><g opacity="1" transform="rotate(0 992.0656 470.4818)">
<svg width="185.8688" height="17.2582" x="992.0656" y="470.4818" version="1.1" preserveAspectRatio="none" viewBox="3.24 -26.48 288.59999999999997 26.8">
  <g transform="matrix(1 0 0 1 0 0)" class="text"><path id="id-6izo4zJp12" d="M23.48-19.48L23.48-19.48Q23.48-15.12 19.92-13.52L19.92-13.52Q23.20-12.44 24.40-9.56L24.40-9.56Q24.84-8.44 24.84-6.96L24.84-6.96Q24.84-2.16 19.76-0.56L19.76-0.56Q18.08 0 15.80 0L15.80 0L3.24 0L3.24-26.48L15.12-26.48Q19.40-26.48 21.64-24.16L21.64-24.16Q23.48-22.32 23.48-19.48ZM6.24-23.64L6.24-14.64L15.12-14.64Q18.80-14.64 20.04-17.16L20.04-17.16Q20.48-18.04 20.48-19.06Q20.48-20.08 20.20-20.86Q19.92-21.64 19.32-22.24L19.32-22.24Q18-23.64 15.44-23.64L15.44-23.64L6.24-23.64ZM6.24-2.84L16.12-2.84Q18.88-2.84 20.36-3.98Q21.84-5.12 21.84-7.20L21.84-7.20Q21.84-9.20 20.40-10.48L20.40-10.48Q18.80-11.92 15.80-11.92L15.80-11.92L6.24-11.92L6.24-2.84Z M43.44-20.32L43.64-20.32L43.64-17.32L43.28-17.32Q40.04-17.32 38-14.72L38-14.72Q36.08-12.24 36.08-8.80L36.08-8.80L36.08 0L33.08 0L33.08-20L36.08-20L36.08-15.08Q37.04-18.20 40.24-19.68L40.24-19.68Q41.56-20.32 43.44-20.32L43.44-20.32Z M68.32 0L65.32 0L65.32-3.12Q64.24-1.68 62.68-0.68Q61.12 0.32 59.12 0.32Q57.12 0.32 55.68-0.24Q54.24-0.80 53.16-1.92L53.16-1.92Q50.68-4.36 50.68-8.36L50.68-8.36L50.68-20L53.68-20L53.68-8.44Q53.68-5.68 55.24-4.04Q56.80-2.40 59.28-2.40L59.28-2.40Q61.80-2.40 63.56-4.08L63.56-4.08Q65.32-5.80 65.32-8.48L65.32-8.48L65.32-20L68.32-20L68.32 0Z M77.52-20L80.52-20L80.52-16.88Q81.60-18.32 83.16-19.32Q84.72-20.32 86.72-20.32Q88.72-20.32 90.16-19.76Q91.60-19.20 92.68-18.08L92.68-18.08Q95.16-15.64 95.16-11.64L95.16-11.64L95.16 0L92.16 0L92.16-11.56Q92.16-14.32 90.60-15.96Q89.04-17.60 86.56-17.60L86.56-17.60Q84.04-17.60 82.28-15.92L82.28-15.92Q80.52-14.20 80.52-11.52L80.52-11.52L80.52 0L77.52 0L77.52-20Z M112.84-20.32L112.84-20.32Q117.32-20.32 120.12-17.32L120.12-17.32Q122.76-14.44 122.76-10L122.76-10Q122.76-5.56 120.12-2.68L120.12-2.68Q117.32 0.32 112.84 0.32L112.84 0.32Q108.36 0.32 105.56-2.68L105.56-2.68Q102.92-5.56 102.92-10L102.92-10Q102.92-14.44 105.56-17.32L105.56-17.32Q108.36-20.32 112.84-20.32ZM112.84-2.40L112.84-2.40Q116.08-2.40 117.96-4.64L117.96-4.64Q119.76-6.76 119.76-10L119.76-10Q119.76-13.24 117.96-15.36L117.96-15.36Q116.08-17.60 112.84-17.60L112.84-17.60Q109.60-17.60 107.72-15.36L107.72-15.36Q105.92-13.24 105.92-10L105.92-10Q105.92-6.76 107.72-4.64L107.72-4.64Q109.60-2.40 112.84-2.40Z M143.88-26.48L146.88-26.48L146.88-2.88L161.32-2.88L161.32 0L143.88 0L143.88-26.48Z M185.36 0L182.36 0L182.36-3.12Q181.28-1.68 179.72-0.68Q178.16 0.32 176.16 0.32Q174.16 0.32 172.72-0.24Q171.28-0.80 170.20-1.92L170.20-1.92Q167.72-4.36 167.72-8.36L167.72-8.36L167.72-20L170.72-20L170.72-8.44Q170.72-5.68 172.28-4.04Q173.84-2.40 176.32-2.40L176.32-2.40Q178.84-2.40 180.60-4.08L180.60-4.08Q182.36-5.80 182.36-8.48L182.36-8.48L182.36-20L185.36-20L185.36 0Z M203.80-2.40L203.80-2.40Q205.72-2.40 207.20-3.48Q208.68-4.56 209.36-6.28L209.36-6.28L212.60-6.28Q211.68-3.32 209.24-1.52L209.24-1.52Q206.68 0.32 203.16 0.32L203.16 0.32Q198.76 0.32 196.00-2.68L196.00-2.68Q193.32-5.60 193.32-10L193.32-10Q193.32-14.40 196.00-17.32L196.00-17.32Q198.76-20.32 203.16-20.32L203.16-20.32Q206.68-20.32 209.24-18.48L209.24-18.48Q211.68-16.68 212.60-13.72L212.60-13.72L209.36-13.72Q208.68-15.44 207.20-16.52Q205.72-17.60 203.80-17.60Q201.88-17.60 200.54-17Q199.20-16.40 198.28-15.36L198.28-15.36Q196.32-13.20 196.32-10L196.32-10Q196.32-6.80 198.28-4.64L198.28-4.64Q200.28-2.40 203.80-2.40Z M229.24-2.40L229.24-2.40Q233.28-2.40 235.04-5.76L235.04-5.76L238.32-5.76Q237.28-3.04 235.02-1.36Q232.76 0.32 229.20 0.32L229.20 0.32Q224.68 0.32 221.84-2.68L221.84-2.68Q219.08-5.60 219.08-10L219.08-10Q219.08-14.44 221.72-17.32L221.72-17.32Q224.52-20.32 229.00-20.32L229.00-20.32Q233.48-20.32 236.28-17.32L236.28-17.32Q238.92-14.44 238.92-10L238.92-10L238.92-8.80L222.16-8.80Q222.48-6.04 224.36-4.24L224.36-4.24Q226.28-2.40 229.24-2.40ZM229.00-17.60L229.00-17.60Q226.24-17.60 224.36-15.88L224.36-15.88Q222.60-14.24 222.20-11.60L222.20-11.60L235.80-11.60Q235.40-14.24 233.64-15.88L233.64-15.88Q231.76-17.60 229.00-17.60Z M246.60-20L249.60-20L249.60-16.88Q250.68-18.32 252.24-19.32Q253.80-20.32 255.80-20.32Q257.80-20.32 259.24-19.76Q260.68-19.20 261.76-18.08L261.76-18.08Q264.24-15.64 264.24-11.64L264.24-11.64L264.24 0L261.24 0L261.24-11.56Q261.24-14.32 259.68-15.96Q258.12-17.60 255.64-17.60L255.64-17.60Q253.12-17.60 251.36-15.92L251.36-15.92Q249.60-14.20 249.60-11.52L249.60-11.52L249.60 0L246.60 0L246.60-20Z M288.84 0L288.84-3.20Q286.44 0.32 281.68 0.32L281.68 0.32Q277.36 0.32 274.64-2.68L274.64-2.68Q272.00-5.64 272.00-10L272.00-10Q272.00-14.36 274.64-17.32L274.64-17.32Q277.36-20.32 281.88-20.32Q286.40-20.32 288.84-16.76L288.84-16.76L288.84-20L291.84-20L291.84 0L288.84 0ZM282.08-2.40L282.08-2.40Q285.32-2.40 287.20-4.64L287.20-4.64Q289.00-6.76 289.00-10L289.00-10Q289.00-13.24 287.20-15.36L287.20-15.36Q285.32-17.60 282.08-17.60L282.08-17.60Q278.88-17.60 276.88-15.36L276.88-15.36Q275.00-13.24 275.00-10L275.00-10Q275.00-6.76 276.88-4.64L276.88-4.64Q278.88-2.40 282.08-2.40Z"/></g>
</svg>
</g><g opacity="1" transform="rotate(0 895 412.9545)">
<svg width="380" height="41.0909" x="895" y="412.9545" version="1.1" preserveAspectRatio="none" viewBox="3.32 -31.48 294.08000000000004 31.8">
  <g transform="matrix(1 0 0 1 0 0)" class="companyName"><path id="id-D6z1nYkh14" d="M24.48-22.80L9.80-22.80L9.80-15.40L22.76-15.40L22.76-10.20L9.80-10.20L9.80 0L3.32 0L3.32-28L24.48-28L24.48-22.80Z M34-18.68Q35.12-20.24 37.02-21.04Q38.92-21.84 41.40-21.84L41.40-21.84L41.40-16.08Q40.36-16.16 40-16.16L40-16.16Q37.32-16.16 35.80-14.66Q34.28-13.16 34.28-10.16L34.28-10.16L34.28 0L28.04 0L28.04-21.52L34-21.52L34-18.68Z M55.16 0.32Q51.76 0.32 49.06-1.10Q46.36-2.52 44.84-5.04Q43.32-7.56 43.32-10.76L43.32-10.76Q43.32-13.96 44.84-16.48Q46.36-19 49.06-20.42Q51.76-21.84 55.16-21.84L55.16-21.84Q58.56-21.84 61.24-20.42Q63.92-19 65.44-16.48Q66.96-13.96 66.96-10.76L66.96-10.76Q66.96-7.56 65.44-5.04Q63.92-2.52 61.24-1.10Q58.56 0.32 55.16 0.32L55.16 0.32ZM55.16-4.80Q57.56-4.80 59.10-6.42Q60.64-8.04 60.64-10.76L60.64-10.76Q60.64-13.48 59.10-15.10Q57.56-16.72 55.16-16.72L55.16-16.72Q52.76-16.72 51.20-15.10Q49.64-13.48 49.64-10.76L49.64-10.76Q49.64-8.04 51.20-6.42Q52.76-4.80 55.16-4.80L55.16-4.80Z M84.20-21.84Q88.20-21.84 90.66-19.44Q93.12-17.04 93.12-12.32L93.12-12.32L93.12 0L86.88 0L86.88-11.36Q86.88-13.92 85.76-15.18Q84.64-16.44 82.52-16.44L82.52-16.44Q80.16-16.44 78.76-14.98Q77.36-13.52 77.36-10.64L77.36-10.64L77.36 0L71.12 0L71.12-21.52L77.08-21.52L77.08-19Q78.32-20.36 80.16-21.10Q82.00-21.84 84.20-21.84L84.20-21.84Z M110.96-5.44L112.64-1.04Q111.72-0.36 110.38-0.02Q109.04 0.32 107.56 0.32L107.56 0.32Q103.72 0.32 101.62-1.64Q99.52-3.60 99.52-7.40L99.52-7.40L99.52-16.24L96.20-16.24L96.20-21.04L99.52-21.04L99.52-26.28L105.76-26.28L105.76-21.04L111.12-21.04L111.12-16.24L105.76-16.24L105.76-7.48Q105.76-6.12 106.46-5.38Q107.16-4.64 108.44-4.64L108.44-4.64Q109.92-4.64 110.96-5.44L110.96-5.44Z M114.96-8.76L114.96-13.76L126.28-13.76L126.28-8.76L114.96-8.76Z M138.08-5.20L153.32-5.20L153.32 0L131.64 0L131.64-28L152.80-28L152.80-22.80L138.08-22.80L138.08-16.72L151.08-16.72L151.08-11.68L138.08-11.68L138.08-5.20Z M171.12-21.84Q175.12-21.84 177.58-19.44Q180.04-17.04 180.04-12.32L180.04-12.32L180.04 0L173.80 0L173.80-11.36Q173.80-13.92 172.68-15.18Q171.56-16.44 169.44-16.44L169.44-16.44Q167.08-16.44 165.68-14.98Q164.28-13.52 164.28-10.64L164.28-10.64L164.28 0L158.04 0L158.04-21.52L164.00-21.52L164.00-19Q165.24-20.36 167.08-21.10Q168.92-21.84 171.12-21.84L171.12-21.84Z M201.60-29.68L207.84-29.68L207.84 0L201.88 0L201.88-2.48Q199.56 0.32 195.16 0.32L195.16 0.32Q192.12 0.32 189.66-1.04Q187.20-2.40 185.80-4.92Q184.40-7.44 184.40-10.76L184.40-10.76Q184.40-14.08 185.80-16.60Q187.20-19.12 189.66-20.48Q192.12-21.84 195.16-21.84L195.16-21.84Q199.28-21.84 201.60-19.24L201.60-19.24L201.60-29.68ZM196.24-4.80Q198.60-4.80 200.16-6.42Q201.72-8.04 201.72-10.76L201.72-10.76Q201.72-13.48 200.16-15.10Q198.60-16.72 196.24-16.72L196.24-16.72Q193.84-16.72 192.28-15.10Q190.72-13.48 190.72-10.76L190.72-10.76Q190.72-8.04 192.28-6.42Q193.84-4.80 196.24-4.80L196.24-4.80Z M225.36 0L225.36-28L231.84-28L231.84-5.28L245.88-5.28L245.88 0L225.36 0Z M249.08 0L249.08-21.52L255.32-21.52L255.32 0L249.08 0ZM252.20-24.52Q250.48-24.52 249.40-25.52Q248.32-26.52 248.32-28L248.32-28Q248.32-29.48 249.40-30.48Q250.48-31.48 252.20-31.48L252.20-31.48Q253.92-31.48 255.00-30.52Q256.08-29.56 256.08-28.12L256.08-28.12Q256.08-26.56 255.00-25.54Q253.92-24.52 252.20-24.52L252.20-24.52Z M267.96-21.96L267.96-21.04L273.48-21.04L273.48-16.24L268.12-16.24L268.12 0L261.88 0L261.88-16.24L258.56-16.24L258.56-21.04L261.88-21.04L261.88-22Q261.88-25.68 264.06-27.84Q266.24-30 270.20-30L270.20-30Q271.60-30 272.86-29.70Q274.12-29.40 274.96-28.84L274.96-28.84L273.32-24.32Q272.24-25.08 270.80-25.08L270.80-25.08Q267.96-25.08 267.96-21.96L267.96-21.96Z M297.40-10.68Q297.40-10.56 297.28-9L297.28-9L281.00-9Q281.44-7 283.08-5.84Q284.72-4.68 287.16-4.68L287.16-4.68Q288.84-4.68 290.14-5.18Q291.44-5.68 292.56-6.76L292.56-6.76L295.88-3.16Q292.84 0.32 287.00 0.32L287.00 0.32Q283.36 0.32 280.56-1.10Q277.76-2.52 276.24-5.04Q274.72-7.56 274.72-10.76L274.72-10.76Q274.72-13.92 276.22-16.46Q277.72-19 280.34-20.42Q282.96-21.84 286.20-21.84L286.20-21.84Q289.36-21.84 291.92-20.48Q294.48-19.12 295.94-16.58Q297.40-14.04 297.40-10.68L297.40-10.68ZM286.24-17.12Q284.12-17.12 282.68-15.92Q281.24-14.72 280.92-12.64L280.92-12.64L291.52-12.64Q291.20-14.68 289.76-15.90Q288.32-17.12 286.24-17.12L286.24-17.12Z"/></g>
</svg>
</g></svg>